<?xml version="1.0" encoding="UTF-8"?>
<!-- Created with Inkscape (http://www.inkscape.org/) -->
<svg width="256" height="256" version="1.1" viewBox="0 0 67.733 67.733" xml:space="preserve" xmlns="http://www.w3.org/2000/svg" xmlns:xlink="http://www.w3.org/1999/xlink"><defs><linearGradient id="linearGradient1068" x1="33.867" x2="33.867" y2="67.733" gradientTransform="translate(1.2271e-6)" gradientUnits="userSpaceOnUse"><stop stop-color="#deab14" offset="0"/><stop stop-color="#f1cd65" offset="1"/></linearGradient></defs><rect width="67.733" height="67.733" ry="0" fill="url(#linearGradient1068)" stroke-width=".26458"/><g transform="rotate(-45 9.8608 -37.012)" fill="#fff"><path d="m-29.633 27.132v27.151a1.8107 1.8107 67.5 0 0 0.53033 1.2803l1.056 1.056a1.8107 1.8107 22.5 0 0 1.2803 0.53033h6.9667a1.8107 1.8107 157.5 0 0 1.2803-0.53033l1.056-1.056a1.8107 1.8107 112.5 0 0 0.53033-1.2803v-2.425l-8.7929-1.954a0.93496 0.93496 51.264 0 1-0.73214-0.9127v-1.675a0.60163 0.60163 141.26 0 1 0.73214-0.5873l8.0607 1.7913a0.60163 0.60163 141.26 0 0 0.73214-0.5873v-3.4833l-8.7929-1.954a0.93496 0.93496 51.264 0 1-0.73214-0.9127v-1.675a0.60163 0.60163 141.26 0 1 0.73214-0.5873l8.0607 1.7913a0.60163 0.60163 141.26 0 0 0.73214-0.5873v-3.4833l-8.7929-1.954a0.93496 0.93496 51.264 0 1-0.73214-0.9127v-1.675a0.60163 0.60163 141.26 0 1 0.73214-0.5873l8.0607 1.7913a0.60163 0.60163 141.26 0 0 0.73214-0.5873v-6.7343l-0.36694 0.26216c-0.33704 0.24079-0.88534 0.64578-1.2794 0.76765-0.36875 0.11404-1.0268 0.10449-1.441 0.10449h-6.5254c-0.41421 0-1.0958 0.0107-1.4872-0.1193-0.36631-0.12166-1.0604-0.62942-1.6001-1.015z" stroke-width="2.6458"/><path d="m-30.244 7.5359-6.1877 4.4198a1.4574 1.4574 117.23 0 0-0.6103 1.1859v5.9083a1.4574 1.4574 62.769 0 0 0.6103 1.1859l6.1877 4.4198a2.3403 2.3403 17.769 0 0 1.3603 0.43593h11.2a2.3403 2.3403 162.23 0 0 1.3603-0.43593l6.1877-4.4198a1.4574 1.4574 117.23 0 0 0.6103-1.1859v-5.9083a1.4574 1.4574 62.769 0 0-0.6103-1.1859l-6.1877-4.4198a2.3403 2.3403 17.769 0 0-1.3603-0.43593h-11.2a2.3403 2.3403 162.23 0 0-1.3603 0.43593zm-4.0573 7.3884 5.726 3.8173v4.2333l-5.7274-3.8467a1.4072 1.4072 61.943 0 1-0.62261-1.1682l1e-6 -2.7018a0.40139 0.40139 151.85 0 1 0.62404-0.33398z" color="#000000" stroke-width="1.0001"/></g></svg>
